<?xml version="1.0" standalone="no"?>
<!DOCTYPE svg PUBLIC "-//W3C//DTD SVG 1.1//EN" "http://www.w3.org/Graphics/SVG/1.1/DTD/svg11.dtd" >
<svg xmlns="http://www.w3.org/2000/svg" xmlns:xlink="http://www.w3.org/1999/xlink" version="1.1">
<metadata>
Created by FontForge 20170910 at Mon Aug 12 15:56:36 2013
 By Jimmy Wärting
Typeface (c) Christopher Jackson. 2013. All Rights Reserved
</metadata>
<defs>
<font id="ArtySignature" horiz-adv-x="167" >
  <font-face 
    font-family="Arty Signature"
    font-weight="400"
    font-stretch="normal"
    units-per-em="2048"
    panose-1="2 0 5 0 0 0 0 0 0 0"
    ascent="1638"
    descent="-410"
    x-height="668"
    cap-height="1409"
    bbox="-2358 -600 1870 1705"
    underline-thickness="150"
    underline-position="-292"
    unicode-range="U+0020-007A"
  />
    <missing-glyph />
    <glyph glyph-name="_1" horiz-adv-x="670" 
 />
    <glyph glyph-name="hyphen" unicode="-" horiz-adv-x="380" 
d="M273 642q23 -7 23 -21q0 -8 -8 -18l-34 9q-8 2 -20 2q-50 0 -159 -45q-11 8 -14 23l2 11q106 44 172 44q21 0 38 -5z" />
    <glyph glyph-name="hyphen" unicode="&#xad;" horiz-adv-x="380" 
d="M273 642q23 -7 23 -21q0 -8 -8 -18l-34 9q-8 2 -20 2q-50 0 -159 -45q-11 8 -14 23l2 11q106 44 172 44q21 0 38 -5z" />
    <glyph glyph-name="period" unicode="." horiz-adv-x="238" 
d="M115 628q28 -11 28 -38q-7 -23 -33 -23h-5q-11 0 -23 38q7 23 33 23z" />
    <glyph glyph-name="slash" unicode="/" horiz-adv-x="1097" 
d="M1335 1705q48 -29 48 -34q-312 -134 -603 -343l6 -14l-6 -14q135 -159 246 -445q103 -401 103 -522q0 -6 -7 -6q14 -57 14 -110q0 -339 -164 -466q0 -14 -55 -55q0 -20 -55 -55q0 -11 -69 -55q-62 -69 -274 -144q-49 0 -76 -21h-34q-7 0 -7 7l-13 -7h-28q-326 0 -500 398
l96 -48q112 -179 192 -226q78 -62 212 -62h21q205 22 466 240q213 224 213 405q0 14 7 75q-7 12 -7 28q0 6 7 6q-42 434 -124 604q-62 189 -137 295q-85 123 -110 123l-13 7q-17 -20 -241 -164h-34q-20 0 -27 68q129 62 233 137l-7 14l58 34q-7 17 -7 28q0 27 38 27v-7l14 7
q12 -7 27 -7q24 31 282 213q28 15 102 68h21l62 -41q0 11 27 28l14 -7q0 18 89 41z" />
    <glyph glyph-name="at" unicode="@" horiz-adv-x="684" 
d="M-274 -312q-46 39 -46 63q0 34 87 39q286 -251 587 -251h38q222 0 222 267v115q0 226 -237 1095q-161 473 -161 574q8 14 8 22h23q18 -15 30 -15l138 -405q291 -1051 291 -1271v-145q-59 -314 -337 -314q-335 0 -643 226z" />
    <glyph glyph-name="A" unicode="A" horiz-adv-x="1271" 
d="M1261 1282q53 0 64 -83q-90 -315 -111 -432l12 -7q192 65 239 65l24 -6v-23q-70 -42 -281 -106q-15 0 -47 -211q-17 -46 -53 -46q-23 8 -23 17q35 123 35 205h-6q-574 -177 -574 -216q-28 -51 -181 -247q-44 -85 -311 -421h-29q-35 21 -35 53q106 100 263 321l235 328
q-12 20 -12 35q0 17 76 36q224 282 545 544q66 84 170 194zM669 585l6 -12l456 158l106 410h-11l-504 -486q0 -17 -53 -70z" />
    <glyph glyph-name="B" unicode="B" horiz-adv-x="691" 
d="M794 1479q189 0 236 -139v-30q0 -144 -285 -424q-274 -277 -356 -321q-122 -106 -122 -115v-7q0 -17 206 -66q67 -36 79 -79q0 -117 -442 -460q-41 -24 -55 -24h-6q-12 0 -12 18q0 13 321 297q93 111 115 157q0 46 -139 67q0 6 -18 6h-49q-51 21 -72 91q0 48 248 236
q527 444 527 666q-48 54 -146 54h-85q-350 -53 -350 -145l-170 -599q-97 -450 -97 -466q-16 -30 -43 -30h-6q-12 0 -12 12q67 410 225 950q36 109 48 200q12 0 30 48q290 103 430 103z" />
    <glyph glyph-name="C" unicode="C" horiz-adv-x="1116" 
d="M1111 1558q130 -35 130 -101v-5q0 -164 -149 -248q-14 0 -14 -5q-40 10 -57 44q0 27 81 62q67 8 76 142v10q0 29 -28 44q-238 0 -616 -357q-159 -156 -235 -278q-145 -216 -159 -371q0 -152 211 -206q48 -10 87 -10h39q238 0 576 235q24 12 24 15q19 -7 19 -15
q-111 -120 -312 -211q-176 -67 -269 -67h-53l-34 5v-5q-154 16 -284 111q-57 77 -57 144q0 183 221 480q96 128 264 279q156 144 265 192q19 20 159 82q11 13 115 34z" />
    <glyph glyph-name="D" unicode="D" horiz-adv-x="953" 
d="M551 1436h55q271 0 346 -401q0 -11 12 -123l-6 -32q0 -2 6 -24q0 -172 -99 -376q-125 -186 -431 -413q-324 -226 -426 -247q12 21 278 203q242 181 401 333q210 188 210 537v68q0 86 -50 235q-43 111 -117 141q0 11 -31 12h-68q-55 0 -86 -135q-80 -200 -130 -494
q-24 -154 -55 -154h-12q-13 0 -13 19q0 201 173 752q27 99 43 99z" />
    <glyph glyph-name="E" unicode="E" horiz-adv-x="752" 
d="M883 1309q14 0 35 -36v-10q0 -7 -15 -15h-51q-265 -38 -265 -66q-187 -222 -292 -419q-69 -108 -148 -316q-56 -138 -117 -358q13 0 133 87q227 120 505 184l102 20h20q8 0 16 -15v-15q-10 -22 -215 -67q-203 -42 -469 -199q-83 -88 -143 -107q-27 0 -46 36
q19 20 112 316q128 370 307 633q91 144 143 204v11h-6q-16 0 -158 -41q-51 20 -56 36v5q234 61 608 132zM729 789l11 -15v-11q0 -23 -230 -77q-188 -71 -204 -71q-24 9 -36 31v10q0 13 163 61q215 69 296 72z" />
    <glyph glyph-name="F" unicode="F" horiz-adv-x="1079" 
d="M1711 1325h22q106 0 106 -51q6 0 6 -5v-6q0 -11 -11 -11q-53 11 -84 11h-56q-325 0 -917 -252q-48 -23 -73 -95q-219 -443 -335 -967q-5 -98 -67 -229h-17q-39 21 -39 28v17q36 0 112 396q133 444 313 840q0 24 33 66q14 45 23 45h5q20 0 45 -22h17q619 235 917 235z
M1034 676q24 -7 34 -28v-11q-17 -15 -185 -56l-279 -117h-17q-28 19 -28 61q0 12 112 33q256 118 363 118z" />
    <glyph glyph-name="G" unicode="G" horiz-adv-x="640" 
d="M527 261q-4 -5 -7 -10q-143 -255 -279 -255l-10 5l-9 -5q-19 4 -19 10l-10 -5q-260 120 -260 433v29q17 202 183 471q324 424 500 424v-5q5 0 5 5q140 -30 140 -120q5 0 5 -10h-5q0 -5 5 -5q-12 -83 -58 -202q-52 -106 -92 -159l-19 -5q-11 2 -33 29q0 10 57 97
q63 131 87 216h-5l5 10v19l-5 24h5q0 34 -67 53q-94 0 -222 -115q-78 -62 -192 -207q-163 -217 -193 -347q-7 -24 -14 -24q0 -5 4 -5q-33 -103 -33 -212l5 -9l-5 -10q38 -202 62 -202q36 -70 130 -120q16 -10 29 -10h19q150 0 328 419l-2 3h-2v3l-1 3q2 14 4 24l2 21v35
q21 1 38 2l4 5q3 0 6 -4q14 1 24 3l-67 -376q-52 -275 -121 -438q-37 -66 -62 -91h-29q-7 0 -15 14v20q0 5 5 5l-5 9q2 10 10 10q10 -5 15 -5q16 30 77 168l-5 10q47 109 92 377z" />
    <glyph glyph-name="H" unicode="H" horiz-adv-x="682" 
d="M811 1348h14q22 -11 22 -36q-144 -274 -228 -504q-18 -53 -18 -67h5q37 23 49 23l4 -9v-9q0 -35 -80 -67q-71 -238 -107 -518q0 -34 -9 -89q6 -143 14 -143q-14 -27 -14 -40h-9q-22 10 -26 143v49q0 221 89 558v4h-9q-277 -120 -375 -120q-18 -59 -54 -317
q-114 -522 -191 -522q-23 0 -27 18q0 32 31 40q94 187 143 500q75 533 165 789q85 212 85 277l9 4h4q40 0 40 -31v-9q-196 -552 -196 -687v-9q111 0 392 130q121 369 277 642z" />
    <glyph glyph-name="I" unicode="I" horiz-adv-x="657" 
d="M1004 1409q11 0 41 -47v-11q-296 -35 -296 -82q-295 -587 -378 -780q-124 -299 -124 -508q55 19 110 59q227 108 352 108l48 35h12q13 0 29 -59q0 -25 -266 -71q-84 -28 -285 -148q0 -12 -88 -48q-192 -118 -267 -118q-30 0 -47 53l18 29l59 -5q248 83 248 154
q15 317 289 862l213 437l-12 6l-555 -142h-12q-29 31 -29 41q0 30 147 47q368 107 485 125q0 14 165 35q12 5 143 28z" />
    <glyph glyph-name="J" unicode="J" horiz-adv-x="375" 
d="M-296 118q-30 25 -30 41q0 22 57 26q187 -165 384 -165h25q145 0 145 175v75q0 148 -155 716q-105 310 -105 376q5 9 5 14h15q12 -10 19 -10l91 -265q190 -687 190 -831v-95q-39 -205 -220 -205q-219 0 -421 148z" />
    <glyph glyph-name="K" unicode="K" horiz-adv-x="742" 
d="M1461 1382q23 -8 34 -28v-6q-5 -9 -267 -113q-144 -75 -357 -239l-432 -397h-11v-23q30 0 119 -193q51 -104 250 -404q0 -6 5 -16q-5 -11 -5 -17h-29q0 13 -147 199l-199 334q-40 39 -40 51q-26 0 -113 -107q-11 0 -91 -97q-68 -39 -68 -74q-24 -380 -63 -380l-11 -6
q-34 15 -34 40q17 74 62 483q74 375 171 613q102 261 125 261h11q5 0 34 -23q-142 -284 -216 -584q-40 -144 -56 -267h11q471 478 823 749q255 169 437 227q0 7 57 17z" />
    <glyph glyph-name="L" unicode="L" horiz-adv-x="469" 
d="M502 1324h5q47 -9 47 -23v-9q-24 -25 -196 -393q-112 -225 -288 -793q-14 -34 -14 -47h5q28 28 143.5 113.5t150.5 100.5q65 43 208 78q47 11 80 11h19q47 0 52 -38l-19 -13h-37q-19 3 -41 3q-202 0 -546 -305q-33 -23 -51 -23h-4q-24 12 -24 37q0 43 104 324
q154 463 266 683q86 155 140 294z" />
    <glyph glyph-name="M" unicode="M" horiz-adv-x="1283" 
d="M789 1345q69 -17 69 -51q-97 -161 -97 -454h6q-6 -10 -6 -16q0 -72 -23 -278h6q196 318 441 618l165 170h6q10 0 62 -23q0 -15 -113 -272q-136 -406 -136 -555q-8 -62 -17 -62l5 -40q0 -33 -11 -113h6l-6 -11v-6q0 -19 6 -29q-17 -76 -23 -136h-11q-12 0 -23 204
q0 400 193 884h-12q-245 -268 -509 -714l-57 -124q-19 -11 -34 -11h-11q-31 0 -40 22v11q28 80 63 329l-6 11l11 28q0 12 -5 12l11 164h-6l6 11v74l5 40h-5q-269 -424 -397 -669l-306 -702q-7 -23 -51 -23h-6q-39 14 -39 57v12q54 0 159 271q270 609 459 861q0 14 90 164
q76 195 181 346z" />
    <glyph glyph-name="N" unicode="N" horiz-adv-x="1102" 
d="M637 1519q113 -47 113 -223v-87q0 -159 -20 -285q0 -6 7 -6q-13 -100 -13 -274v-161q6 -105 26 -105q199 190 254 348q193 354 292 520q54 75 105 242h6q34 0 56 -37q0 -83 -261 -484q-122 -296 -347 -589q-62 -68 -125 -68q-79 0 -86 204v124q0 26 6 68l-6 13
q12 115 31 477h-7l7 13q0 25 -7 50l7 25l-19 124h-12q-61 -88 -162 -391q-85 -278 -216 -590q-138 -412 -187 -595q-19 -54 -56 -87h-6q-62 12 -62 43q77 97 180 497q24 42 155 415q38 75 236 640q80 152 80 167q21 12 31 12z" />
    <glyph glyph-name="O" unicode="O" horiz-adv-x="1045" 
d="M1077 1608q145 -61 145 -176v-57q0 -6 6 -6q-62 -358 -221 -630q-96 -194 -245 -365q-305 -340 -453 -340q-115 0 -233 144q-63 82 -63 184q0 196 239 566q71 130 397 435q94 75 208 126q125 119 220 119zM888 1438v-6q0 -14 6 -26q-17 -56 -44 -56l-44 6
q-127 -170 -138 -170q-7 33 -7 38q18 43 32 63v13h-6q-111 -72 -265 -265q-246 -291 -308 -535q-25 -104 -25 -138q0 -126 126 -240q58 -25 81 -25q133 0 460 365q0 10 132 183q237 418 271 642q6 84 6 145q0 80 -75 113q-110 0 -202 -107z" />
    <glyph glyph-name="P" unicode="P" horiz-adv-x="770" 
d="M1078 1360h49q125 0 173 -113v-11q0 -158 -362 -357q-30 -24 -408 -211q-104 -51 -157 -119h-22l-6 27q0 85 369 233q42 27 218 124q289 181 309 303q0 65 -146 65q-334 0 -576 -189q-119 -79 -157 -211q0 -14 -119 -265l-141 -374l-130 -406q0 -11 -27 -11h-16
q-8 0 -22 21v6q200 615 395 1045q28 65 28 98q0 5 -6 43q0 27 65 38q64 66 293 184q163 80 396 80z" />
    <glyph glyph-name="Q" unicode="Q" horiz-adv-x="1489" 
d="M1373 1508q311 0 401 -201q13 -53 13 -71q0 -145 -155 -330q-115 -157 -355 -381q21 -49 194 -155l13 -20q0 -9 -20 -19h-20q-81 26 -226 136h-13q-438 -317 -808 -382h-71q-169 0 -311 155q-45 78 -45 117v6q0 195 291 583q424 475 601 504h20q6 0 38 -33
q-3 -37 -18 -58l-46 7q-194 -79 -440 -349q-368 -414 -368 -654q34 -213 297 -213q177 0 563 200q0 6 175 110q84 62 84 91q-16 0 -20 45l20 13q63 -20 71 -20q100 64 329 337q138 172 162 304q0 147 -174 200q-30 13 -84 13h-33q-225 0 -465 -109q-34 -13 -53 -13l-6 13v12
q95 69 324 130q52 25 135 32z" />
    <glyph glyph-name="R" unicode="R" horiz-adv-x="1001" 
d="M1075 1350l11 -5h15q124 0 226 -64q127 -84 127 -179q0 -70 -158 -152q-130 -66 -658 -195q-210 -54 -210 -79q0 -49 315 -137q325 -116 621 -368q166 -136 185 -221q5 0 5 -6v-5h-5q-355 342 -463 379q-97 76 -327 163q-390 107 -390 179q-14 0 -20 53q84 54 531 153
q511 126 511 252q0 113 -216 163q-52 5 -79 5q-218 0 -495 -152q-159 -107 -205 -232q-153 -370 -153 -569q-36 -155 -36 -268v-10q-6 -16 -32 -16h-5q-37 0 -37 31q52 381 173 785q74 196 190 279q120 95 326 163q55 28 253 53z" />
    <glyph glyph-name="S" unicode="S" horiz-adv-x="621" 
d="M587 1259q101 0 137 -106v-74q0 -125 -222 -290l-26 -6q-40 0 -53 21q1 10 143 122q111 111 111 212q0 78 -85 78q-80 0 -264 -190q-143 -210 -143 -343v-63q0 -160 148 -297q41 -52 275 -238q69 -45 95 -132q0 -117 -195 -264q-246 -148 -408 -148q-36 -21 -100 -21h-21
q-5 0 -5 -5q-10 5 -16 5q-62 -11 -79 -11q-47 0 -254 -5q-16 0 -43 11l-10 -6q-10 6 -16 6v5l5 10l37 -5h48q13 11 21 11q266 0 555 74q203 65 338 200q80 89 80 159q-43 85 -265 248q-221 220 -238 344l-15 74l5 11v15q0 6 -5 6q15 158 121 338q216 254 344 254z" />
    <glyph glyph-name="T" unicode="T" horiz-adv-x="885" 
d="M1767 1358l5 -11v-16q-802 -143 -1199 -308q-302 -116 -534 -243l-66 -16q-25 11 -27 22v11q7 8 110 33q199 124 495 220q63 36 214 82q0 12 99 34q4 10 182 54h33q0 14 159 45q0 5 34 10l10 -5q28 0 66 22q4 0 23 -5q53 32 154 32q64 22 242 39zM1101 1171h16
q33 0 56 -33v-16q-121 -107 -369 -418q-26 -32 -88 -138q-123 -156 -413 -687q-62 -111 -88 -182q-4 0 -33 -6q-10 14 -10 22q0 30 104 226q14 0 22 49q29 25 88 171q27 9 50 88q57 50 76 110q69 96 111 187q37 23 142 187q0 21 61 71q0 19 143 187q112 121 132 182z" />
    <glyph glyph-name="U" unicode="U" horiz-adv-x="1077" 
d="M483 1450q21 -10 32 -34v-5q-166 -245 -185 -327q-100 -163 -219 -598q-27 -138 -27 -214v-17q0 -173 116 -248l32 -5q141 0 562 530q78 101 232 360q127 194 162 237q0 29 42 90l-5 12q30 48 65 146h9v-6q-12 -94 -37 -152q0 -10 -74 -175v-17q0 -5 5 -5q0 -9 -70 -79
q-249 -373 -320 -738q-28 -43 -28 -62h-5l-9 6q5 5 9 84h-4q33 186 55 226v16h-14q-168 -231 -348 -400q-3 0 -134 -96q-62 -22 -79 -22q-149 0 -208 242q-7 76 -10 90q23 121 23 130q0 5 -5 5l57 209q0 18 22 62q-4 11 -4 17l153 378q0 7 79 146q25 76 130 214z" />
    <glyph glyph-name="V" unicode="V" horiz-adv-x="617" 
d="M1381 1401q31 -7 31 -16v-8q-21 -39 -87 -39q-200 -102 -449 -327q-226 -225 -386 -449q-280 -383 -303 -492q-18 -16 -35 -16q-17 5 -24 19q41 131 75 311l-5 9l20 86l-3 8l43 229q40 196 83 326q63 211 86 323q7 4 16 4h4q23 0 28 -19q-165 -540 -165 -607
q-18 -61 -29 -82l5 -8q-36 -174 -68 -410h5q157 240 303 430q7 0 47 58q11 0 31 39q9 0 32 40q8 0 71 79q14 0 28 36q304 293 421 350q194 126 225 126z" />
    <glyph glyph-name="W" unicode="W" horiz-adv-x="1075" 
d="M602 1379l41 -25v-6l-156 -311q-100 -185 -227 -493l-201 -493v-14q171 254 201 271l-4 10l91 111q63 98 150 185q29 51 61 66q64 92 181 201q12 0 40 40q8 0 75 81q18 0 101 95q25 0 25 6q45 -25 45 -31v-10q0 -29 -50 -45l-121 -181q-86 -153 -161 -367h10q7 0 181 196
q27 0 45 50q231 237 312 282q2 11 181 130q0 11 31 11q10 -19 10 -41l-251 -181q0 -5 -102 -90q-117 -114 -245 -262q-190 -209 -252 -307q-9 -4 -20 -4q-45 0 -45 35v4q53 45 145 357q6 5 106 213v9q-65 -45 -291 -307q-307 -382 -449 -633q-37 -84 -175 -302l-25 -5h-10
q-27 0 -36 20v15q75 106 152 297q10 0 39 86q15 23 96 241q44 115 60 130q45 166 71 166v11q0 5 -5 5l90 210q41 64 76 177q11 0 35 65q18 40 81 150l75 177q2 0 19 5z" />
    <glyph glyph-name="X" unicode="X" horiz-adv-x="968" 
d="M1824 1232q46 0 46 -52q-69 -29 -251 -74q-328 -129 -457 -206q-12 0 -132 -80q-47 -8 -280 -171v-12q32 -44 229 -457q34 -40 183 -308q43 -46 97 -149q-6 -17 -11 -17q-44 0 -195 257q-87 137 -320 612q-22 34 -28 34q-28 0 -309 -217q-354 -280 -794 -709
q-64 -74 -69 -74h-11q-40 0 -57 29q132 139 686 634q300 226 342 268q117 71 177 126v12q-49 92 -308 365l-6 34l17 12h12q34 0 108 -115q185 -213 212 -274h22q105 76 332 200q255 162 663 291q97 28 102 41z" />
    <glyph glyph-name="Y" unicode="Y" horiz-adv-x="448" 
d="M533 1475q26 -14 40 -50v-24q-91 -161 -196 -670q-112 -630 -112 -1001q-6 0 -6 -25q0 -8 6 -8v-208l-17 -17h-16q-6 0 -6 8l-11 -8h-6q-11 0 -11 25v183q0 19 5 34q0 8 -5 8q7 172 17 240q-6 0 -6 8l11 8q-5 16 -5 25q13 252 39 364q0 8 -6 8q51 317 51 339
q-105 -198 -157 -198q-61 0 -112 165v8q0 9 6 9q-17 44 -17 198v17q0 8 5 8q0 8 -5 8q5 107 56 389q0 41 50 41q35 -16 39 -41v-41q-30 0 -78 -373q6 -14 6 -33v-8q0 -8 -6 -8l6 -17v-66q20 -157 44 -157q88 95 168 298q0 8 201 554z" />
    <glyph glyph-name="Z" unicode="Z" horiz-adv-x="1124" 
d="M985 1299l24 -4h61q16 0 41 4q30 -9 38 -9l33 5q26 -5 37 -5v5l10 -5h18q42 0 80 -9q4 0 4 5l178 -19h14q12 0 28 9q61 -14 61 -56q0 -5 -19 -28q-17 5 -19 5q-5 0 -14 -5l-23 5q-327 -126 -645 -299q-328 -174 -546 -354q-184 -141 -260 -223q0 -6 -14 -28l9 -5
q126 67 162 79q103 80 126 82q344 182 607 182q239 0 239 -74q-6 0 -14 -5q-76 32 -239 32q-125 0 -350 -74q-176 -55 -336 -176q-160 -102 -209 -102q-56 16 -56 56h-5q9 59 218 224q75 48 131 98q55 66 233 166q102 69 523 295q15 0 337 154v5q-169 18 -359 18h-104
q-492 0 -628 -67h-3q-31 0 -212 -65q-38 13 -52 32v19q5 0 15 4q3 0 28 -4q292 98 413 105l9 -5q124 19 300 28h18q20 0 38 -5q74 5 74 9z" />
    <glyph glyph-name="backslash" unicode="\" horiz-adv-x="296" 
d="M266 1434q233 35 329 35q68 0 68 -18q0 -33 -293 -75q-559 -1804 -559 -1962q0 -11 3 -14l-30 5q-22 12 -22 45q0 9 2 20l4 20q506 1922 569 1922h1z" />
    <glyph glyph-name="grave" unicode="`" horiz-adv-x="1024" 
d="M673 1079h-69l-330 202q-31 20 -46.5 40t-15.5 42q0 31 20.5 51t53.5 20q20 0 40.5 -12t55.5 -47z" />
    <glyph glyph-name="a" unicode="a" horiz-adv-x="219" 
d="M226 567h-33q-21 0 -59 33h-6q-47 -49 -75 -49h-11l-43 38q0 75 70 113h22q102 -7 102 -43v-22h6q9 0 27 -70z" />
    <glyph glyph-name="b" unicode="b" horiz-adv-x="212" 
d="M155 835q40 0 40 -32q-74 -76 -96 -140h4q5 0 44 8h12q60 0 76 -28q0 -8 -144 -112l-28 -8h-20q-7 0 -36 40h-8q-50 -48 -80 -48q-4 0 -16 16q0 7 68 56q124 143 172 244q4 0 12 4zM63 575v-4h4q22 0 84 60v4h-4q-84 0 -84 -60z" />
    <glyph glyph-name="c" unicode="c" 
d="M168 700q12 -13 12 -20q0 -14 -84 -40q-56 -41 -56 -64q13 -8 20 -8q12 0 108 12h12q8 -1 8 -8q0 -32 -124 -44q-38 0 -76 52v4q0 27 72 72q53 44 108 44z" />
    <glyph glyph-name="d" unicode="d" horiz-adv-x="258" 
d="M288 918h4q34 0 48 -52q-13 -87 -128 -236q0 -36 60 -48v-8q-8 -24 -32 -24q-21 0 -64 44h-4q-104 -92 -152 -92q-25 0 -52 44v8q0 57 164 132q29 0 36 72q75 160 120 160zM204 706v-8h4q63 75 80 160h-8q-44 -37 -76 -152zM20 550v-4h4q44 7 128 92v8h-8
q-120 -56 -124 -96z" />
    <glyph glyph-name="e" unicode="e" horiz-adv-x="238" 
d="M129 684h16q41 0 56 -32q0 -43 -140 -68q-16 4 -28 4q-11 0 -20 -20q18 -16 20 -16h28q27 0 196 48q8 -4 12 -4v-16q-53 -44 -196 -72h-16q-69 0 -96 64q0 58 168 112z" />
    <glyph glyph-name="f" unicode="f" horiz-adv-x="174" 
d="M329 1008h8q8 0 16 -28q-2 -12 -104 -92q-86 -88 -124 -144q-72 -120 -72 -136q85 24 120 24q8 -13 8 -20q0 -22 -84 -40q-84 -21 -84 -56q0 -60 -24 -60h-4l-24 32q12 78 96 232q72 109 152 184q98 104 120 104z" />
    <glyph glyph-name="g" unicode="g" horiz-adv-x="174" 
d="M97 725q24 -8 24 -32l-20 -28q62 -69 88 -164q28 -41 28 -84v-16q-48 -84 -192 -84q-92 0 -124 60l-4 28q12 4 12 8l44 -40q34 -12 48 -12h28q144 12 144 72q-41 143 -92 184h-4q-13 0 -28 -12h-8q-20 12 -32 40q0 53 88 80z" />
    <glyph glyph-name="h" unicode="h" horiz-adv-x="180" 
d="M109 939h16q5 0 20 -20v-4l-108 -344v-12h8q61 72 80 72q13 0 64 -44q32 0 32 -20q-7 -18 -24 -28q-10 0 -72 36q-87 -91 -96 -92h-24q-5 0 -24 28q0 48 120 420q1 8 8 8z" />
    <glyph glyph-name="i" unicode="i" horiz-adv-x="90" 
d="M46 743q24 -9 24 -32q-6 -20 -28 -20h-4q-9 0 -20 32q6 20 28 20zM34 647q24 -16 24 -32q-28 -71 -40 -80h-12q-12 4 -12 24v8q7 80 32 80h8z" />
    <glyph glyph-name="j" unicode="j" horiz-adv-x="103" 
d="M46 743q24 -9 24 -32q-6 -20 -28 -20h-4q-9 0 -20 32q6 20 28 20zM34 647q24 -16 24 -32q-86 -779 -98 -788h-12q-12 4 -12 24v8q65 788 90 788h8z" />
    <glyph glyph-name="k" unicode="k" horiz-adv-x="187" 
d="M82 870h4q32 0 32 -36q-36 -113 -52 -188v-4l72 16q20 -2 20 -24v-4q-36 -45 -36 -92l-20 -4h-12q-17 16 -44 28q-24 -112 -44 -112h-12q-8 2 -16 20q88 345 96 392z" />
    <glyph glyph-name="l" unicode="l" horiz-adv-x="192" 
d="M-9 589h7q61 63 144 254q0 16 15 26q44 0 44 -41q-29 -22 -52 -151q0 -12 -3 -18q0 -4 3 -4l-3 -25v-8q0 -19 18 -55q9 2 15 2q17 0 17 -15q-1 -22 -6 -31h-22q-53 0 -70 114q4 7 4 11h-8q0 -8 -37 -59q-28 -52 -59 -52z" />
    <glyph glyph-name="m" unicode="m" horiz-adv-x="200" 
d="M98 704q20 0 20 -16l-8 -76h4q58 32 68 32q44 -9 44 -56q-5 -24 -20 -24q-7 1 -32 20q-13 0 -64 -36q-48 0 -48 60h-4q-8 0 -56 -52h-16q-24 16 -24 32q0 19 56 52q61 64 80 64z" />
    <glyph glyph-name="n" unicode="n" horiz-adv-x="148" 
d="M69 692q51 0 72 -60q0 -8 8 -40q-4 -16 -20 -16q-11 0 -40 60h-8q-30 0 -68 -68q-12 -4 -12 -8q-40 10 -40 36q87 92 108 96z" />
    <glyph glyph-name="o" unicode="o" horiz-adv-x="216" 
d="M45 600l-4 8q3 16 8 16l-4 8q0 7 48 16q11 20 36 20q48 -40 84 -40l-20 -52l-28 16q0 -56 -68 -88q-26 8 -40 20q0 -11 -48 -40q7 57 36 116z" />
    <glyph glyph-name="p" unicode="p" 
d="M95 703h16q41 0 68 -84q0 -56 -52 -80q-8 10 -8 20q-39 -12 -44 -12q-20 7 -20 20h-4q-96 -120 -188 -356q-28 -85 -28 -100v-8l4 -20q-15 -12 -24 -12q-28 10 -28 24q0 75 156 384q108 162 108 164q28 53 44 60zM67 583q27 16 48 16l20 -4v20q0 19 -20 32
q-48 -36 -48 -64z" />
    <glyph glyph-name="q" unicode="q" horiz-adv-x="161" 
d="M71 690h16q36 0 36 -28l40 4q16 -17 16 -44q-44 -22 -160 -320l-44 -244h-12q-8 34 -8 40q0 207 128 468v4q-61 -16 -68 -16q-44 11 -44 64q41 72 100 72zM19 610v-4h12q40 9 60 24q-4 8 -4 12h-4q-37 0 -64 -32z" />
    <glyph glyph-name="r" unicode="r" horiz-adv-x="161" 
d="M165 693q16 0 28 -20v-12q0 -4 -72 -52q-78 -88 -112 -88q-16 0 -28 48l4 20q-4 22 -4 36q8 18 16 20h12q32 0 32 -2v-12h4q99 62 120 62z" />
    <glyph glyph-name="s" unicode="s" horiz-adv-x="142" 
d="M138 703q24 -16 24 -36q-8 -24 -32 -24q-38 12 -52 12q-36 -12 -36 -20q60 -65 60 -68v-4q0 -31 -56 -48q-44 8 -44 16v4l40 28v4q-48 53 -48 88q0 48 144 48z" />
    <glyph glyph-name="t" unicode="t" horiz-adv-x="148" 
d="M208 1050q22 0 28 -16q-4 -28 -120 -280q-24 -36 -48 -108l8 -4l28 4q25 0 36 -20v-8q0 -10 -96 -32q-29 -148 -52 -148h-8q0 10 -16 12v12q0 21 36 144q-8 13 -8 20q40 17 40 68q105 219 156 356h16z" />
    <glyph glyph-name="u" unicode="u" horiz-adv-x="135" 
d="M29 680q12 0 24 -24q0 -10 -8 -52h4q15 0 52 64q7 4 16 4h4q20 -8 20 -28v-8q-84 -108 -112 -108q-36 20 -36 48v16q0 20 8 48l-4 24q23 16 32 16z" />
    <glyph glyph-name="v" unicode="v" horiz-adv-x="219" 
d="M240 688q32 -7 32 -28q0 -8 -116 -92q-79 -92 -116 -92q-27 0 -72 128q8 24 32 24h16q4 0 28 -32l-4 -20v-16l4 -20h8q143 132 188 148z" />
    <glyph glyph-name="w" unicode="w" horiz-adv-x="206" 
d="M7 683h28q5 0 24 -24q-20 -48 -20 -56h4q14 0 48 40h4q29 0 36 -32q-4 -7 -4 -16q4 0 4 -4q71 60 96 60h4l8 -28q0 -18 -108 -100l-28 -8q-14 0 -32 28q-24 -16 -44 -16h-8q-32 19 -32 72q9 84 20 84z" />
    <glyph glyph-name="x" unicode="x" horiz-adv-x="198" 
d="M80 686h8q6 0 36 -44q66 20 80 20q20 0 20 -24q-1 -14 -56 -40q24 -19 24 -40v-4q0 -6 -12 -12h-12l-52 36q-22 -5 -132 -52q-21 10 -32 32v8q10 10 124 52q0 5 -20 48v8q4 12 24 12z" />
    <glyph glyph-name="y" unicode="y" 
d="M140 702h20l20 -4v-16l4 -24q-16 -11 -88 -248q-44 -170 -44 -340v-32q0 -182 36 -276q-5 -20 -12 -20h-4q-42 0 -60 284v68q0 174 84 488h-8q-37 -28 -56 -28q-64 31 -64 100q8 18 16 20h24q24 -14 24 -32q0 -2 -4 -16q4 -8 4 -12h12q30 18 96 88z" />
    <glyph glyph-name="z" unicode="z" horiz-adv-x="251" 
d="M99 674q28 -9 28 -16v-8q0 -27 -40 -56v-8q94 4 128 4v4l8 -4h24q26 0 52 -12q0 -28 -48 -36l-28 4h-16q-119 -12 -160 -12q-36 0 -36 48v8q16 18 16 20v8h-4q-10 0 -36 -8q-13 2 -32 36v8q7 16 28 16q28 0 116 4z" />
    <glyph glyph-name="quotesingle" unicode="'" horiz-adv-x="164" 
d="M127 864q15 -8 15 -27q0 -30 -36 -85l-16 -7q-22 -6 -35 -6q41 61 41 86q0 11 -8 15l-19 10q27 17 45 17q7 0 13 -3z" />
    <glyph glyph-name="space" unicode=" " horiz-adv-x="242" 
 />
    <glyph glyph-name="equal" unicode="=" horiz-adv-x="1134" 
d="M244 705q52 0 104 -68q15 -9 60 -12q136 9 136 16l8 -4q52 12 140 12h36q70 0 148 -16v4q171 -28 240 -44l4 -8l-12 -8q-41 0 -368 40q-4 0 -4 -4l-20 4h-4q-56 0 -312 -28q-67 0 -128 80h-48q-64 0 -232 -96q-16 6 -24 20v12q178 100 276 100z" />
    <glyph glyph-name="underscore" unicode="_" horiz-adv-x="0" 
d="M-1620 198q51 8 104 8q93 0 190 -24h10q46 0 155 14q370 61 369 67h22q140 30 380 65l98 14q191 28 406 45v4q470 44 661 58l12 -5l-32 -12q-111 -16 -1009 -112q-10 -1 -10 -4v-1l-56 -4l-10 -2q-153 -22 -847 -147q-69 -10 -137 -10q-113 0 -224 27l-131 -19
q-174 -25 -618 -172h-16q-33 0 -53 7l-2 10q471 154 738 193z" />
    <glyph glyph-name="ampersand" unicode="&#x26;" horiz-adv-x="199" 
d="M140 827v-3l6 3h3q46 -22 60 -42v-20q-55 -77 -75 -85q-80 -35 -86 -52q36 -69 52 -69l31 -23h6q-10 50 -26 72q5 13 9 13h3q24 0 34 -69v-10q-3 0 -3 -3q6 -1 6 -6q-3 -6 -3 -14q87 -92 150 -122v-10q-3 -10 -17 -10l-133 116h-5q0 -31 -55 -42q-78 11 -78 26
q-40 34 -40 75v7q0 45 43 82q0 13 3 13l-3 7v19q0 4 3 4q0 3 -3 3q0 55 32 108q0 -3 3 -3q0 9 83 35zM48 730q0 -4 3 -4q-6 -24 -6 -46v-16h6q98 46 127 85q3 0 8 13q-5 8 -5 10q3 6 3 9q-7 7 -29 17v3h-15q-78 -21 -78 -42zM2 569l3 -23h-3q13 -45 52 -66q16 0 31 -6l6 3
l6 -3q37 11 37 36q-77 47 -92 78q-11 15 -11 23h-3q-26 -26 -26 -42z" />
  </font>
</defs>
</svg>
